<svg xmlns="http://www.w3.org/2000/svg" width="96" height="96" viewBox="0 0 96 96">
  <!-- Document frame -->
  <rect x="28" y="16" width="40" height="64" rx="4"
        fill="none" stroke="#2E7D32" stroke-width="3"/>
  
  <!-- Heart shape (moved up) -->
  <path d="M48 42
           C45 37,37 37,33 42
           C29 47,33 55,48 64
           C63 55,67 47,63 42
           C59 37,51 37,48 42 Z"
        fill="#FBC02D" stroke="#2E7D32" stroke-width="3"/>
  
  <!-- Adults inside heart -->
  <circle cx="40" cy="46" r="3"
          fill="#FBC02D" stroke="#2E7D32" stroke-width="3"/>
  <path d="M36 52 Q40 50 44 52"
        fill="none" stroke="#2E7D32" stroke-width="3"/>
  
  <circle cx="56" cy="46" r="3"
          fill="#FBC02D" stroke="#2E7D32" stroke-width="3"/>
  <path d="M52 52 Q56 50 60 52"
        fill="none" stroke="#2E7D32" stroke-width="3"/>
  
  <!-- Child inside heart -->
  <circle cx="48" cy="52" r="2.5"
          fill="#F4A000" stroke="#2E7D32" stroke-width="3"/>
  <path d="M45 56 Q48 55 51 56"
        fill="none" stroke="#2E7D32" stroke-width="3"/>
</svg>

