<svg xmlns="http://www.w3.org/2000/svg" width="96" height="96" viewBox="0 0 96 96">
  <!-- Document Outline -->
  <rect x="28" y="20" width="40" height="56" rx="4" ry="4"
        fill="none" stroke="#2E7D32" stroke-width="3"/>

  <!-- Document Lines -->
  <line x1="36" y1="32" x2="60" y2="32"
        stroke="#2E7D32" stroke-width="3"/>
  <line x1="36" y1="42" x2="60" y2="42"
        stroke="#2E7D32" stroke-width="3"/>

  <!-- Plus Symbol (compound shape, rounded ends, shorter arms only) -->
  <g transform="translate(48,60)">
    <path d="
      M -4 -9
      Q -4 -11  -2 -11
      L  2 -11
      Q  4 -11   4 -9
      L  4 -4
      L  9 -4
      Q 11 -4  11 -2
      L 11  2
      Q 11  4   9  4
      L  4  4
      L  4  9
      Q  4 11   2 11
      L -2 11
      Q -4 11  -4  9
      L -4  4
      L -9  4
      Q -11 4 -11 2
      L -11 -2
      Q -11 -4  -9 -4
      L -4 -4
      Z"
      fill="#FBC02D" stroke="#2E7D32" stroke-width="3"/>
  </g>
</svg>

